<svg xmlns="http://www.w3.org/2000/svg" viewBox="0 0 64 64" fill="none" stroke="currentColor" stroke-width="1.8" stroke-linecap="round" stroke-linejoin="round">
  <!-- Rear wheel -->
  <circle cx="13" cy="47" r="9"/>
  <circle cx="13" cy="47" r="5"/>
  <circle cx="13" cy="47" r="1.5" fill="currentColor"/>
  <line x1="13" y1="38" x2="13" y2="42"/>
  <line x1="13" y1="52" x2="13" y2="56"/>
  <line x1="4" y1="47" x2="8" y2="47"/>
  <line x1="18" y1="47" x2="22" y2="47"/>
  <!-- Front wheel -->
  <circle cx="51" cy="47" r="9"/>
  <circle cx="51" cy="47" r="5"/>
  <circle cx="51" cy="47" r="1.5" fill="currentColor"/>
  <line x1="51" y1="38" x2="51" y2="42"/>
  <line x1="51" y1="52" x2="51" y2="56"/>
  <line x1="42" y1="47" x2="46" y2="47"/>
  <line x1="56" y1="47" x2="60" y2="47"/>
  <!-- Rear fender -->
  <path d="M4 43 Q4 35 13 35 Q22 35 22 43"/>
  <!-- Front fender -->
  <path d="M42 43 Q42 35 51 35 Q60 35 60 43"/>
  <!-- Chassis/frame bottom -->
  <path d="M22 44 L26 40 L38 40 L42 44"/>
  <!-- Engine block -->
  <rect x="28" y="36" width="8" height="6" rx="1"/>
  <line x1="30" y1="36" x2="30" y2="42"/>
  <line x1="34" y1="36" x2="34" y2="42"/>
  <!-- Seat -->
  <path d="M24 34 Q24 28 28 27 L36 27 Q40 28 40 30 L40 34 Q38 36 34 36 L30 36 Q26 36 24 34Z" stroke-width="1.5"/>
  <!-- Fuel tank -->
  <path d="M28 27 L30 22 L34 22 L36 27"/>
  <!-- Handlebars -->
  <path d="M30 22 L26 14"/>
  <path d="M34 22 L38 14"/>
  <line x1="24" y1="14" x2="28" y2="14"/>
  <line x1="36" y1="14" x2="40" y2="14"/>
  <!-- Handlebar grips -->
  <circle cx="24" cy="14" r="1.2" fill="currentColor"/>
  <circle cx="40" cy="14" r="1.2" fill="currentColor"/>
  <!-- Headlights -->
  <circle cx="48" cy="32" r="2" fill="currentColor" opacity="0.3"/>
  <circle cx="48" cy="32" r="1"/>
  <!-- Front rack -->
  <path d="M44 30 L50 26 L54 28"/>
  <line x1="46" y1="28" x2="52" y2="26"/>
  <!-- Rear rack -->
  <path d="M20 30 L14 26 L10 28"/>
  <line x1="18" y1="28" x2="12" y2="26"/>
  <!-- Exhaust -->
  <path d="M20 40 L16 38 L14 36" stroke-width="1.5"/>
  <!-- Suspension lines -->
  <path d="M22 44 L20 38" stroke-dasharray="2 1.5" stroke-width="1"/>
  <path d="M42 44 L44 38" stroke-dasharray="2 1.5" stroke-width="1"/>
</svg>
